<?xml version="1.0" ?><!DOCTYPE svg  PUBLIC '-//W3C//DTD SVG 1.1//EN'  'http://www.w3.org/Graphics/SVG/1.1/DTD/svg11.dtd'><svg id="Layer_1" style="enable-background:new 0 0 74 74;" version="1.1" viewBox="0 0 74 74" xml:space="preserve" xmlns="http://www.w3.org/2000/svg" xmlns:xlink="http://www.w3.org/1999/xlink"><style type="text/css">
	.st0{fill:#7688A1;}
	.st1{fill:#FABB8E;}
	.st2{fill:#E69D6A;}
	.st3{fill:#594667;}
	.st4{fill:#E73A36;}
	.st5{fill:#CFE5E4;}
	.st6{fill:#FFFFFF;}
	.st7{fill:#EEF1F6;}
	.st8{fill:#8EDAFA;}
	.st9{fill:#FFF383;}
	.st10{fill:#70B7D6;}
	.st11{fill:#FFAEC3;}
	.st12{fill:#FF9DB2;}
	.st13{fill:#F18DA2;}
	.st14{fill:#FFDF97;}
	.st15{fill:#49375B;}
	.st16{fill:#452E1B;}
	.st17{fill:#FEF6B0;}
	.st18{fill:#FFCCA9;}
	.st19{fill:#FED766;}
	.st20{fill:#8A9DB2;}
	.st21{fill:#5D738C;}
	.st22{fill:#2C3E50;}
	.st23{fill:#EC685E;}
	.st24{fill:#54758C;}
	.st25{fill:#D12828;}
	.st26{fill:#69567C;}
	.st27{fill:#857399;}
	.st28{fill:#705D82;}
	.st29{fill:#EAA678;}
	.st30{fill:#D88D5B;}
	.st31{fill:#3597D3;}
	.st32{fill:#E27491;}
	.st33{fill:#E4F2F1;}
	.st34{fill:#FFE576;}
	.st35{fill:#FFB8CB;}
	.st36{fill:#C91F1F;}
	.st37{fill:#E0E2EE;}
	.st38{fill:#FEFEFE;}
	.st39{fill:#E5E5E5;}
	.st40{fill:#D3D3D3;}
	.st41{fill:#C2C3C4;}
	.st42{fill:none;}
	.st43{fill:#FFFBD7;}
	.st44{fill:#CCCCCC;}
	.st45{fill:#FFF5B0;}
	.st46{fill:#EDEFF4;}
	.st47{fill:#F0F2F7;}
	.st48{fill:#D3EBF7;}
</style><g><path class="st12" d="M52.3,73H21.7c-2.3,0-4.3-1.7-4.6-4L9.7,14.7h54.5L56.9,69C56.6,71.3,54.6,73,52.3,73z"/><path class="st3" d="M65.5,14.7H8.5c-1.9,0-3.5-1.6-3.5-3.5v0c0-1.9,1.6-3.5,3.5-3.5h56.9c1.9,0,3.5,1.6,3.5,3.5v0   C69,13.1,67.4,14.7,65.5,14.7z"/><g><path class="st0" d="M45.9,7.6H28.1v-3c0-2,1.6-3.6,3.6-3.6h10.6c2,0,3.6,1.6,3.6,3.6V7.6z"/></g><g><polygon class="st6" points="35.7,32.2 30.3,37.7 26.2,33.6 31.6,28.1   "/><polygon class="st6" points="39.7,39.1 41.2,37.7 31.6,28.1 39.8,28.1 45.3,33.6 46.8,32.1 47,39.1   "/><polygon class="st6" points="26.3,51.4 33.8,53.4 32.3,59 24.8,57   "/><polygon class="st6" points="30.4,44.5 28.3,43.9 24.8,57 20.8,49.9 22.8,42.4 20.7,41.9 26.7,38.2   "/><polygon class="st6" points="47.7,49.9 45.7,42.5 51.3,41 53.3,48.4   "/><polygon class="st6" points="39.7,49.9 40.2,51.9 53.3,48.4 49.2,55.5 41.7,57.5 42.2,59.5 36,56.2   "/></g></g></svg>